<svg viewBox="0 0 32 32" xmlns="http://www.w3.org/2000/svg" xmlns:xlink="http://www.w3.org/1999/xlink" width="32.000000" height="32.000000" fill="none" customFrame="#000000">
	<rect id="Frame 16" width="32.000000" height="32.000000" x="0.000000" y="0.000000" fill="rgb(255,255,255)" fill-opacity="0" />
	<g id="Group 63">
		<path id="Vector" d="M29.8276 8.2356L26.8998 8.2356L26.2272 5.20139C25.9399 3.90525 24.8106 3 23.4808 3L13.3164 3C11.9867 3 10.8573 3.90519 10.57 5.20133L9.89738 8.2356L9.20263 8.2356L9.20263 6.94096C9.20263 6.2114 8.608 5.6178 7.87712 5.6178L3.59138 5.6178C2.8605 5.6178 2.26588 6.2114 2.26588 6.94096L2.26588 8.2356L2.17231 8.2356C0.9745 8.2356 0 9.20843 0 10.4042L0 25.0919C0 26.2877 0.9745 27.2605 2.17237 27.2605L4.39406 27.2605L12.2471 27.2605C14.0205 28.4073 16.1329 29.0741 18.3986 29.0741C20.6643 29.0741 22.7767 28.4073 24.55 27.2605L29.8276 27.2605C31.0255 27.2605 32 26.2877 32 25.0919L32 10.4042C32 9.20843 31.0255 8.2356 29.8276 8.2356ZM11.7904 5.47093C11.9501 4.7508 12.5776 4.24779 13.3164 4.24779L23.4807 4.24779C24.2196 4.24779 24.8471 4.75073 25.0067 5.47093L25.6196 8.2356L24.55 8.2356C22.7766 7.08883 20.6643 6.42204 18.3986 6.42204C16.1329 6.42204 14.0205 7.08883 12.2471 8.2356L11.1775 8.2356L11.7904 5.47093ZM3.51588 6.94096C3.51588 6.89941 3.54975 6.86565 3.59138 6.86565L7.87706 6.86565C7.91869 6.86565 7.95256 6.89947 7.95256 6.94096L7.95256 8.2356L3.51588 8.2356L3.51588 6.94096ZM5.01906 26.0126L5.01906 19.2357C5.01906 18.8911 4.73925 18.6118 4.39406 18.6118C4.04887 18.6118 3.76906 18.8911 3.76906 19.2357L3.76906 26.0127L2.17237 26.0127C1.66381 26.0127 1.25 25.5996 1.25 25.0919L1.25 10.4042C1.25 9.89649 1.66381 9.48345 2.17237 9.48345L2.89094 9.48345L8.57756 9.48345L10.3991 9.48345L10.6496 9.48345C8.43769 11.5515 7.053 14.4912 7.053 17.748C7.053 21.0049 8.43769 23.9445 10.6496 26.0126L5.01906 26.0126ZM24.1692 26.0127C23.4242 26.5326 22.606 26.9547 21.7333 27.2605C20.6888 27.6265 19.5667 27.8262 18.3986 27.8262C17.2304 27.8262 16.1082 27.6264 15.0638 27.2605C14.1911 26.9547 13.373 26.5326 12.6279 26.0127C10.0154 24.1892 8.303 21.1648 8.303 17.7481C8.303 14.3314 10.0154 11.3069 12.6279 9.48352C13.3729 8.96354 14.1911 8.54145 15.0638 8.23567C16.1083 7.86967 17.2304 7.66995 18.3986 7.66995C19.5667 7.66995 20.6889 7.86973 21.7333 8.23567C22.606 8.54145 23.4241 8.96354 24.1692 9.48352C26.7817 11.3069 28.4941 14.3314 28.4941 17.7481C28.4941 21.1648 26.7817 24.1892 24.1692 26.0127ZM30.75 25.0918C30.75 25.5996 30.3363 26.0126 29.8276 26.0126L26.1475 26.0126C28.3594 23.9445 29.7441 21.0049 29.7441 17.748C29.7441 14.4912 28.3594 11.5515 26.1475 9.48345L26.398 9.48345L29.8276 9.48345C30.3363 9.48345 30.75 9.89649 30.75 10.4042L30.75 25.0918Z" fill="rgb(82,33,230)" fill-rule="nonzero" />
		<path id="Vector" d="M18.3704 10.1111C14.1226 10.1111 10.6667 13.5669 10.6667 17.8148C10.6667 22.0626 14.1226 25.5185 18.3704 25.5185C18.9893 25.5185 19.6054 25.4448 20.2014 25.2994C20.5163 25.2226 20.7092 24.9052 20.6325 24.5904C20.5557 24.2755 20.2382 24.0825 19.9234 24.1594C19.4183 24.2826 18.8957 24.345 18.3704 24.345C14.7696 24.345 11.8402 21.4156 11.8402 17.8149C11.8402 14.2141 14.7696 11.2847 18.3704 11.2847C21.9711 11.2847 24.9005 14.2141 24.9005 17.8149C24.9005 19.1273 24.513 20.3926 23.7797 21.4742C23.5979 21.7424 23.668 22.1073 23.9362 22.2892C24.2042 22.471 24.5693 22.401 24.7512 22.1328C25.6166 20.8561 26.0741 19.363 26.0741 17.8149C26.0741 13.5669 22.6182 10.1111 18.3704 10.1111Z" fill="rgb(82,33,230)" fill-rule="nonzero" />
		<path id="Vector" d="M4.74073 11.2964C3.43367 11.2964 2.37036 12.3598 2.37036 13.6668C2.37036 14.9738 3.43373 16.0371 4.74073 16.0371C6.04773 16.0371 7.1111 14.9738 7.1111 13.6668C7.1111 12.3598 6.04773 11.2964 4.74073 11.2964ZM4.74073 14.764C4.13577 14.764 3.64356 14.2718 3.64356 13.6668C3.64356 13.0619 4.13577 12.5696 4.74073 12.5696C5.34569 12.5696 5.83791 13.0619 5.83791 13.6668C5.83791 14.2718 5.34575 14.764 4.74073 14.764Z" fill="rgb(82,33,230)" fill-rule="nonzero" />
		<path id="Vector" d="M23.6924 23.6248C23.6847 23.5875 23.6734 23.5502 23.6586 23.514C23.6438 23.4785 23.6254 23.4441 23.6041 23.4121C23.5828 23.3795 23.5578 23.3493 23.5306 23.3221C23.5033 23.2948 23.4726 23.2699 23.4405 23.248C23.4079 23.2267 23.3735 23.2083 23.338 23.1935C23.3024 23.1787 23.2651 23.1674 23.2272 23.1597C23.1508 23.1443 23.0719 23.1443 22.9955 23.1597C22.9575 23.1674 22.9202 23.1787 22.8847 23.1935C22.8491 23.2083 22.8147 23.2267 22.7822 23.248C22.7501 23.2699 22.7199 23.2948 22.6921 23.3221C22.6648 23.3493 22.6399 23.3795 22.6186 23.4121C22.5973 23.4441 22.5789 23.4785 22.5641 23.514C22.5492 23.5502 22.538 23.5875 22.5303 23.6248C22.5226 23.6633 22.5185 23.7024 22.5185 23.7409C22.5185 23.7794 22.5226 23.8185 22.5303 23.8565C22.538 23.8944 22.5492 23.9317 22.5641 23.9672C22.5789 24.0034 22.5973 24.0378 22.6186 24.0697C22.6399 24.1023 22.6648 24.1325 22.6921 24.1598C22.7199 24.187 22.7501 24.2119 22.7822 24.2333C22.8148 24.2546 22.8491 24.2729 22.8847 24.2878C22.9202 24.3026 22.9575 24.3138 22.9955 24.3215C23.034 24.3292 23.0725 24.3334 23.1111 24.3334C23.1501 24.3334 23.1887 24.3292 23.2272 24.3215C23.2651 24.3138 23.3025 24.3026 23.338 24.2878C23.3736 24.2729 23.408 24.2546 23.4405 24.2333C23.4725 24.2119 23.5033 24.187 23.5306 24.1598C23.6408 24.0496 23.7037 23.8967 23.7037 23.7409C23.7037 23.7024 23.7001 23.6633 23.6924 23.6248Z" fill="rgb(82,33,230)" fill-rule="nonzero" />
	</g>
</svg>
