<svg viewBox="0 0 24 24" xmlns="http://www.w3.org/2000/svg" xmlns:xlink="http://www.w3.org/1999/xlink" width="24.000000" height="24.000000" fill="none">
	<rect id="LinkedIn 1" width="24.000000" height="24.000000" x="0.000000" y="0.000000" fill="rgb(255,255,255)" fill-opacity="0" />
	<path id="Vector" d="M19.65 3L4.35 3C3.63 3 3 3.54268 3 4.2663L3 19.7337C3 20.4573 3.63 21 4.35 21L19.65 21C20.37 21 21 20.4573 21 19.7337L21 4.2663C21 3.63313 20.37 3 19.65 3ZM8.31 18.4673L5.61 18.4673L5.61 9.87435L8.31 9.87435L8.31 18.4673ZM6.96 8.608C6.06 8.608 5.43 7.88442 5.43 7.07035C5.43 6.25628 6.15 5.53265 6.96 5.53265C7.77 5.53265 8.49 6.25628 8.49 7.07035C8.58 7.97488 7.86 8.608 6.96 8.608ZM18.3 18.4673L15.6 18.4673L15.6 14.3066C15.6 13.3116 15.6 12.0452 14.25 12.0452C12.9 12.0452 12.63 13.1307 12.63 14.3066L12.63 18.5578L9.93001 18.5578L9.93001 9.96478L12.45 9.96478L12.45 11.1407C12.81 10.4171 13.71 9.78392 14.97 9.78392C17.67 9.78392 18.21 11.593 18.21 13.8543L18.21 18.4673L18.3 18.4673Z" fill="rgb(0,119,181)" fill-rule="nonzero" />
</svg>
