<svg viewBox="0 0 32 32" xmlns="http://www.w3.org/2000/svg" xmlns:xlink="http://www.w3.org/1999/xlink" width="32.000000" height="32.000000" fill="none" customFrame="#000000">
	<path id="Vector" d="M30.2222 23.1111L17.7778 23.1111L17.7778 30.2222L30.2222 30.2222L30.2222 23.1111ZM30.2222 1.77778L17.7778 1.77778L17.7778 16L30.2222 16L30.2222 1.77778ZM10.6667 16L1.77778 16L1.77778 30.2222L10.6667 30.2222L10.6667 16ZM10.6667 1.77778L1.77778 1.77778L1.77778 8.88889L10.6667 8.88889L10.6667 1.77778ZM17.7778 0C16.7959 0 16 0.795947 16 1.77778L16 16C16 16.9819 16.7959 17.7778 17.7778 17.7778L30.2222 17.7778C31.2041 17.7778 32 16.9819 32 16L32 1.77778C32 0.795947 31.2041 0 30.2222 0L17.7778 0ZM17.7778 21.3333C16.7959 21.3333 16 22.1292 16 23.1111L16 30.2222C16 31.2041 16.7959 32 17.7778 32L30.2222 32C31.2041 32 32 31.2041 32 30.2222L32 23.1111C32 22.1292 31.2041 21.3333 30.2222 21.3333L17.7778 21.3333ZM0 16C0 15.0182 0.795947 14.2222 1.77778 14.2222L10.6667 14.2222C11.6485 14.2222 12.4444 15.0182 12.4444 16L12.4444 30.2222C12.4444 31.2041 11.6485 32 10.6667 32L1.77778 32C0.795947 32 0 31.2041 0 30.2222L0 16ZM1.77778 0C0.795947 0 0 0.795947 0 1.77778L0 8.88889C0 9.87072 0.795947 10.6667 1.77778 10.6667L10.6667 10.6667C11.6485 10.6667 12.4444 9.87072 12.4444 8.88889L12.4444 1.77778C12.4444 0.795947 11.6485 0 10.6667 0L1.77778 0Z" fill="rgb(82,33,230)" fill-rule="evenodd" />
</svg>
