<svg viewBox="0 0 85 30" xmlns="http://www.w3.org/2000/svg" xmlns:xlink="http://www.w3.org/1999/xlink" width="85.000000" height="30.000000" fill="none">
	<rect id="Frame 63" width="85.000000" height="30.000000" x="0.000000" y="0.000000" fill="rgb(255,255,255)" fill-opacity="0" />
	<g id="Group 107">
		<path id="Vector" d="M38.6427 14.1573C41.3291 13.2706 41.8166 11.0292 41.8101 9.20268C41.8049 6.41422 39.8245 4.0018 33.9617 4.0018L23.0195 4L23.0195 24.9568L33.9336 24.9568C39.8311 24.9568 42.0012 21.9471 42.0012 18.9324C42.0012 15.2819 38.6427 14.1573 38.6427 14.1573ZM28.2124 8.55929L35.5794 8.55929L35.6061 8.56468C36.4377 8.71111 37.0431 9.41398 37.0431 10.2386C37.0431 11.0823 36.3944 11.8766 35.5372 11.9929L28.2174 12.0039L28.2124 8.55929ZM35.225 20.0728L28.2124 20.0728L28.2124 16.5641L35.3968 16.5641L35.4137 16.5659C36.3075 16.6684 36.9845 17.4069 36.9845 18.2846C36.9845 19.241 36.1832 20.0581 35.225 20.0728Z" fill="rgb(132,145,160)" fill-rule="nonzero" />
		<path id="Vector" d="M66.5039 4.00269L84.995 4.00269L84.9848 8.57668L71.6416 8.57668L71.6544 11.9546L83.6837 11.9546L83.6837 16.5521L71.6544 16.5521L71.6544 20.2073L84.9994 20.2073L84.9968 25L66.5039 25L66.5039 4.00269Z" fill="rgb(132,145,160)" fill-rule="nonzero" />
		<path id="Vector" d="M55.7485 4.03027L44.5664 4.03027L44.5664 24.9938L49.7013 24.9938L49.7013 16.5121C49.7013 16.5121 55.3554 16.5057 55.3564 16.5057C56.9759 16.5304 58.2354 17.8492 58.2354 19.4754L58.2354 24.9755L63.2616 24.9737L63.2515 18.2077C63.2515 15.0735 60.2056 14.1474 60.2056 14.1474C60.2056 14.1474 63.3197 13.2211 63.3197 9.51567C63.3197 4.98204 59.4002 4.03027 55.7485 4.03027ZM58.5513 10.5343C58.4591 11.2234 57.7659 11.9711 56.9004 11.9711L49.6837 11.9739L49.6837 8.61702L56.904 8.61702C57.7659 8.61702 58.4418 9.24847 58.5513 10.0769L58.5513 10.5343Z" fill="rgb(132,145,160)" fill-rule="nonzero" />
		<path id="Vector" d="M19.6896 19.928C19.6157 19.9299 12.6706 20.0634 10.273 19.8309C6.41091 19.4549 5.0433 16.6115 5.0433 14.2906C5.0433 11.3969 7.0278 9.26738 10.1022 8.86749C11.5647 8.6771 19.5627 8.76682 19.6472 8.76764L19.8154 8.7696L19.8324 4.00244L19.6625 4.00342L10.6104 4.01993C9.60272 4.08121 7.93192 4.18188 6.22101 4.8774C4.57751 5.62586 3.14709 6.77553 2.07904 8.20596C0.719648 10.027 0 12.1877 0 14.4543C0 15.1673 0.0567228 15.8748 0.172636 16.5538C0.824052 19.7322 2.92019 22.3623 5.92588 23.7772C6.94082 24.221 8.50606 24.7536 11.6628 24.9293C11.6693 24.9293 13.3634 24.9649 13.3634 24.9649L19.674 24.9713L19.8407 24.9713L19.8585 19.926L19.6896 19.928Z" fill="rgb(132,145,160)" fill-rule="nonzero" />
	</g>
</svg>
