<svg viewBox="0 0 85 30" xmlns="http://www.w3.org/2000/svg" xmlns:xlink="http://www.w3.org/1999/xlink" width="85.000000" height="30.000000" fill="none">
	<rect id="Frame 64" width="85.000000" height="30.000000" x="0.000000" y="0.000000" />
	<g id="Group 108">
		<path id="Vector" d="M26.5125 14.0984C25.1276 18.3121 21.7406 20.6866 17.1606 20.6866C11.4645 20.6866 7 16.1672 7 10.3819C7 4.6741 11.4645 0.000279685 16.9681 0.000279685C22.0865 0.000279685 27.0132 4.21458 26.9747 11.2246L10.31 11.2246C10.7331 15.3242 13.8891 17.7376 17.1606 17.7376C19.9701 17.7376 21.971 16.3968 23.0491 14.0984L26.5125 14.0984ZM23.3571 8.31336C22.5487 5.09503 19.8547 2.95012 16.9681 2.95012C14.2359 2.95012 11.3493 4.9426 10.5027 8.31336L23.3571 8.31336ZM38.4818 20.6869C35.6338 20.6869 33.1704 19.1548 31.7467 17.2395L31.7467 29L28.4752 29L28.4752 0.498399L31.6312 0.498399L31.6312 3.63926C33.017 1.64791 35.5565 0 38.4818 0C44.1773 0 48.3727 4.6355 48.3727 10.3056C48.3727 16.0523 44.1773 20.6869 38.4818 20.6869ZM38.4818 2.98872C34.8254 2.98872 31.7467 6.28341 31.7467 10.3056C31.7467 14.3658 34.8254 17.699 38.4818 17.699C42.1762 17.699 45.1012 14.3658 45.1012 10.3056C45.1012 6.28341 42.1762 2.98872 38.4818 2.98872ZM49.7967 0.498399L53.0684 0.498399L53.0684 20.2274L49.7967 20.2274L49.7967 0.498399ZM54.529 10.3937C54.529 4.63662 59.2236 0.00587339 65.1675 0.00587339C71.112 0.00587339 75.8072 4.63662 75.8072 10.3937C75.8072 16.1507 71.0687 20.6973 65.1675 20.6973C59.2672 20.6973 54.529 16.1507 54.529 10.3937ZM66.0656 3.14898C60.6502 2.67771 57.6381 6.78153 57.6381 11.5627C57.6381 16.3428 61.5968 20.2196 66.4778 20.2196C68.3051 20.2229 70.0894 19.6668 71.5885 18.6268L70.3629 15.5214C71.629 14.2086 72.3607 12.3937 72.3607 10.3897C72.3607 6.42717 69.5812 3.47817 66.0656 3.14898Z" fill="rgb(132,145,160)" fill-rule="nonzero" />
		<path id="Vector" d="M62.2136 12.3765L71.8648 20.1926L77 20.1926L67.5978 12.3765" fill="rgb(132,145,160)" fill-rule="nonzero" />
	</g>
</svg>
